<?xml version="1.0" encoding="UTF-8"?><svg id="Layer_2" xmlns="http://www.w3.org/2000/svg" viewBox="0 0 512 484.26"><defs><style>.cls-1{fill:#fff;}.cls-2{fill:#1c1c1c;}</style></defs><g id="Layer_1-2"><g><g><path class="cls-1" d="M505.09,90.59c-4.29-29.21-14.53-58.69-28.84-82.99-1.07-1.81-3.11-2.99-5.21-2.99-.82,0-1.59,.16-2.35,.47-32.76,13.75-56.45,29.07-76.8,49.68l-10.6,10.73-12.66-8.2c-22.93-14.85-48.87-22.7-75.01-22.7-8.55,0-17.13,.83-25.51,2.47-3.99,.78-8.06,1.17-12.11,1.17s-8.13-.39-12.11-1.17c-8.38-1.64-16.96-2.47-25.51-2.47-26.14,0-52.08,7.85-75.01,22.7l-12.65,8.2-10.6-10.73C99.76,34.15,76.07,18.83,43.31,5.08c-.76-.32-1.53-.47-2.35-.47-2.1,0-4.15,1.17-5.21,2.99C21.24,32.25,10.94,62.12,6.75,91.71c-4.39,30.98-1.85,58.38,7.34,79.23,1.93,4.38,4.17,8.46,6.64,12.14l1.82,2.7,.79,3.16,4.48,17.92c1.06,4.23,3.05,8.26,5.91,11.98l4.45,5.78-.68,7.26-.28,2.94c-.06,.62-.09,1.17-.09,1.67,0,.59,.03,1.22,.1,1.91,.27,2.91,1.16,5.68,2.64,8.24,.62,1.07,1.34,2.09,2.14,3.03l5.2,6.09-.88,7.96c-2.37,21.39,2.02,35.29,13.03,41.29h0c7.37,3.68,13,5.56,19.45,6.48l4.08,.58,14.27,2.04,1.53,14.33c3.58,33.47,22.21,66.41,52.48,92.75h0s0,0,0,0l4.59,3.33,.2,.15c10.45,7.59,21.26,15.44,31.76,23.13l3.07,2.23c19.93,14.53,40.53,29.56,64.08,29.56,1.49,0,2.99-.06,4.47-.19,24.92-2.06,46.56-19.05,65.66-34.04l1.07-.84,7.91-6.23c5.82-4.57,14.51-11.39,26.03-20.42,1.69-1.33,3.05-2.39,3.53-2.79l.04-.04,.22-.2c17.52-15.98,30.66-33.88,39.05-53.2,4.74-10.93,7.86-22.17,9.25-33.42l1.75-14.05,14.02-2,4.77-.68c6.44-.92,12.08-2.8,19.45-6.48,11.02-6.01,15.4-19.9,13.03-41.29l-.88-7.96,5.2-6.09c.81-.94,1.53-1.96,2.14-3.03,1.48-2.56,2.37-5.33,2.64-8.24,.06-.65,.09-1.24,.1-1.8l.04-6.79,4.42-5.15,.16-.19h0c.55-4.42,.66-7.78,.33-10.02-.09-.6-.23-1.14-.44-1.7l-4.34-11.32,8.63-8.51c6.39-6.3,11.61-14.26,15.53-23.67,8.72-20.92,10.95-48.13,6.47-78.66Z"/><path class="cls-1" d="M254.86,484.26c-25.07,0-46.3-15.48-66.82-30.45l-3.07-2.23c-10.5-7.69-21.31-15.54-31.76-23.12l-4.78-3.47c-31.48-27.37-50.68-61.38-54.38-96.03l-1.15-10.73-14.76-2.11c-6.98-1-13.02-3-20.87-6.93-12.97-7.08-18.17-22.52-15.58-45.97l.66-5.96-3.89-4.56c-.99-1.16-1.87-2.41-2.63-3.73-1.81-3.13-2.91-6.55-3.25-10.13-.08-.86-.11-1.62-.11-2.35,0-.63,.03-1.32,.11-2.11l.79-8.38-3.33-4.33c-3.26-4.23-5.53-8.84-6.74-13.69l-5.07-20.28-1.36-2.02c-2.62-3.9-4.99-8.22-7.04-12.86C.29,151.16-2.37,122.89,2.14,91.06,6.41,60.88,16.93,30.4,31.74,5.23,34.37,.74,40.32-1.23,45.13,.79c33.34,13.99,57.5,29.63,78.31,50.7l7.93,8.03,9.47-6.14c23.69-15.34,50.5-23.45,77.55-23.45,8.84,0,17.73,.86,26.4,2.55,7.38,1.44,15.08,1.44,22.44,0,8.68-1.69,17.56-2.55,26.41-2.55,27.04,0,53.86,8.11,77.54,23.45l9.47,6.14,7.93-8.03c20.81-21.07,44.96-36.71,78.32-50.7,4.77-2.01,10.73-.05,13.37,4.45,14.61,24.81,25.06,54.89,29.43,84.68h0c4.61,31.37,2.26,59.43-6.78,81.13-4.16,9.98-9.73,18.46-16.56,25.19l-6.46,6.37,3.25,8.47c.33,.87,.56,1.74,.7,2.68,.4,2.69,.3,6.37-.32,11.28l-.16,1.31-4.4,5.2-.03,5.08c0,.69-.04,1.41-.11,2.2-.34,3.6-1.43,7.02-3.25,10.16-.75,1.29-1.63,2.55-2.63,3.72l-3.89,4.56,.66,5.96c2.59,23.45-2.6,38.89-15.43,45.9-8,4-14.05,6.01-21.02,7l-15.26,2.18-1.31,10.52c-1.45,11.69-4.68,23.36-9.6,34.7-8.65,19.93-22.17,38.36-40.18,54.78l-.41,.38c-.46,.38-1.7,1.36-3.28,2.59l-35.36,27.77c-19.61,15.4-41.84,32.84-68.15,35.02-1.6,.13-3.24,.2-4.85,.2ZM40.96,9.27c-.45,0-.97,.3-1.2,.69C25.56,34.1,15.47,63.36,11.36,92.36c-4.27,30.11-1.85,56.64,6.99,76.7,1.82,4.13,3.92,7.97,6.24,11.42l2.27,3.38,5.47,21.87c.9,3.6,2.61,7.06,5.08,10.27l5.57,7.24-1.14,12.03c-.04,.46-.06,.86-.06,1.23,0,.46,.03,.95,.08,1.49,.21,2.23,.89,4.36,2.03,6.33,.48,.83,1.04,1.62,1.66,2.35l6.51,7.63-1.11,9.97c-2.14,19.33,1.44,31.67,10.63,36.69,6.74,3.37,11.96,5.12,17.88,5.96l21.93,3.13,1.91,17.94c3.45,32.3,21.53,64.17,50.91,89.73l4.27,3.08c10.66,7.74,21.47,15.59,31.97,23.28l3.06,2.22c19.33,14.09,39.3,28.66,61.34,28.66,1.36,0,2.73-.06,4.08-.17,23.53-1.95,44.59-18.48,63.17-33.06l35.01-27.49c1.83-1.43,2.99-2.34,3.42-2.7,17.14-15.63,29.89-33,38.02-51.71,4.57-10.52,7.56-21.34,8.9-32.14l2.18-17.58,22.31-3.19c5.91-.85,11.13-2.59,18.02-6.04,9.05-4.94,12.62-17.29,10.49-36.62l-1.11-9.96,6.51-7.63c.63-.73,1.18-1.52,1.65-2.33,1.15-1.98,1.83-4.12,2.04-6.36,.05-.5,.07-.97,.08-1.41l.05-8.49,4.78-5.57c.45-4.08,.35-6.25,.19-7.37-.04-.27-.1-.48-.19-.72l-5.43-14.16,10.8-10.65c5.94-5.86,10.83-13.31,14.51-22.14,8.39-20.14,10.52-46.49,6.16-76.19h0c-4.2-28.63-14.23-57.51-28.24-81.31-.34-.57-1.13-.84-1.74-.58-32.17,13.5-55.39,28.5-75.3,48.66l-13.26,13.42-15.84-10.26c-29.41-19.06-64.26-25.98-97.1-19.58-8.55,1.67-17.46,1.67-26.02,0-32.85-6.41-67.68,.52-97.1,19.58l-15.83,10.26-13.26-13.42C96.9,37.88,73.68,22.87,41.51,9.38c-.19-.08-.35-.11-.55-.11Z"/></g><g><path class="cls-2" d="M408.72,278.32l-5.37-3.81c-5.14-3.64-11.12-8.52-16.09-15.29-9.54,7.8-19.27,9.92-27.04,9.92-5.11,0-9.78-.94-13.8-2.25-1.13,1.92-2.4,4.1-3.81,6.56l-10.58,18.45-13.65-16.31c-4.97-5.94-10.55-12.62-13.64-21.72-17.43,8.51-40.07,12.69-68.34,12.69-13.39,0-28.37-.98-44.55-2.9l-40.19-4.79c-6.62,3.55-11.73,7.73-16.14,13.03l-7.53,9.04-10.51-5.29c-4.07-2.05-7.17-2.85-11.06-2.85-.94,0-1.95,.06-2.99,.16-1.88,9.85-3.4,19.73-4.54,29.63-5.67,44.99,16.3,87.31,52.27,118.61,12.23,8.88,24.48,17.76,36.55,26.6,20.28,14.74,42.35,31.79,67.15,31.79,1.48,0,2.97-.06,4.47-.19,24.6-2.04,46.35-18.88,65.66-34.04-.04-.01,38.33-30.09,38.33-30.1,34.48-31.24,54.68-72.79,48.53-116.81-.86-6.73-1.92-13.45-3.13-20.15Zm-59.15,21.88c7.53-4.49,13.76-8.28,19.04-11.58,4.34-2.71,10.05-1.39,12.76,2.94,2.71,4.34,1.39,10.05-2.94,12.76-5.39,3.37-11.73,7.22-19.37,11.78-1.49,.89-3.12,1.31-4.73,1.31-3.15,0-6.23-1.61-7.96-4.52-2.62-4.39-1.18-10.08,3.21-12.7Zm-218.95-8.63c2.71-4.34,8.43-5.65,12.76-2.94,5.24,3.27,11.46,7.06,19.04,11.58,4.39,2.62,5.83,8.3,3.21,12.7-1.73,2.91-4.81,4.52-7.96,4.52-1.61,0-3.25-.42-4.74-1.31-7.69-4.58-14.02-8.44-19.37-11.78-4.34-2.71-5.65-8.43-2.94-12.76Zm-7.57,62.45c-4.62,0-8.61-3.45-9.18-8.15-.62-5.08,3-9.69,8.08-10.31,9.55-1.16,19.74-2.46,31.17-3.97,5.09-.7,9.73,2.89,10.4,7.96,.67,5.07-2.89,9.73-7.96,10.4-11.5,1.53-21.77,2.84-31.38,4-.38,.05-.75,.07-1.13,.07Zm48.08,20.05c-8.04,7.19-13.85,13.44-17.29,18.57-1.79,2.67-4.72,4.11-7.7,4.11-1.77,0-3.56-.51-5.14-1.57-4.25-2.85-5.39-8.6-2.54-12.85,4.36-6.51,11.01-13.72,20.32-22.07,3.81-3.41,9.67-3.09,13.08,.72,3.41,3.81,3.09,9.67-.72,13.08Zm151.8-12.25c-8.07,8.35-19.65,12.88-33.5,13.1-.16,0-.33,0-.48,0-15.01,0-26.01-8.32-32.94-18.42-6.92,10.1-17.92,18.42-32.91,18.42-.16,0-.32,0-.48,0-13.89-.22-25.47-4.75-33.54-13.1-7.51-7.77-11.36-18.19-11.14-30.12,.09-5.06,4.22-9.09,9.26-9.09,.06,0,.12,0,.17,0,5.12,.09,9.18,4.32,9.09,9.43-.13,6.91,1.93,12.75,5.94,16.91,4.58,4.73,11.66,7.31,20.48,7.45h.26c16.82,0,23.04-19.95,23.11-25.08,.07-5.07,4.2-9.14,9.26-9.14h.12c.13,0,.26,.04,.39,.04,.13,0,.25-.04,.39-.04,5.08,0,9.32,4.02,9.38,9.14,.07,5.13,6.3,25.08,23.15,25.08,.09,0,.17,0,.26,0,8.78-.14,15.87-2.72,20.44-7.45,4.01-4.15,6.07-10,5.94-16.91-.09-5.11,3.98-9.34,9.09-9.43,.06,0,.12,0,.17,0,5.04,0,9.16,4.04,9.26,9.09,.22,11.94-3.63,22.35-11.14,30.12Zm48.07,33.36c-1.58,1.06-3.38,1.57-5.15,1.57-2.99,0-5.92-1.44-7.7-4.11-3.44-5.13-9.26-11.38-17.29-18.57-3.81-3.41-4.14-9.27-.72-13.08,3.41-3.81,9.27-4.14,13.08-.72,9.31,8.34,15.96,15.55,20.32,22.06,2.85,4.25,1.71,10-2.54,12.85Zm27.12-49.31c-.57,4.7-4.57,8.15-9.18,8.15-.37,0-.75-.02-1.13-.07-9.6-1.16-19.87-2.47-31.38-4-5.07-.67-8.64-5.33-7.96-10.4,.67-5.07,5.3-8.65,10.4-7.96,11.45,1.52,21.64,2.82,31.17,3.97,5.08,.62,8.7,5.23,8.08,10.31Z"/><path class="cls-2" d="M476.26,7.6c-1.12-1.9-3.13-2.99-5.21-2.99-.79,0-1.58,.15-2.35,.47-35.81,15.03-63.06,32.82-87.46,61.28-25.18-20.09-55.27-31.78-87.6-31.78-8.68,0-17.21,.84-25.51,2.47-4.01,.78-8.06,1.17-12.11,1.17s-8.11-.39-12.11-1.17c-8.31-1.62-16.83-2.47-25.51-2.47-32.33,0-62.42,11.69-87.6,31.78C106.37,37.9,79.12,20.11,43.31,5.08c-.77-.32-1.56-.47-2.35-.47-2.09,0-4.1,1.08-5.21,2.99C-6.62,79.59-11.62,193.84,58.68,208.7c-4.32,1.85-8.79,3.24-13.81,3.24s-10.57-1.39-17.06-5.09c4.78,19.1,27.02,32.25,59.18,32.25,2.95,0,6-.12,9.11-.35,2.44-.18,4.91-.41,7.44-.74-9.05,5.88-7.19,15.14-5.34,20.7,.22-.04,.42-.05,.64-.08,2.72-.42,5.24-.64,7.57-.64,.05,0,.11,0,.16,0,6.81,.03,12.21,1.74,17.56,4.43,5.57-6.69,11.83-11.86,19.67-16.16,3.8-2.09,7.98-3.97,12.64-5.72,4.93-1.85,10.4-3.56,16.53-5.2,15.88-4.25,36.21-8.07,63.18-12.97,0,0-5.74,8.53-19.39,16.68-3.91,2.33-8.47,4.63-13.72,6.69-2.93,1.15-6.07,2.23-9.44,3.2,14.41,1.72,28.9,2.8,42.8,2.8,18.95,0,36.78-2.04,51.83-7.21,7.22-2.48,13.8-5.67,19.55-9.72,4.54-3.2,8.59-6.9,12.01-11.21-1.09,3.58-1.77,6.8-2.17,9.77-.37,2.72-.5,5.24-.37,7.55,.15,2.64,.61,5.02,1.28,7.25,2.09,6.86,6.38,12.15,11.21,17.91,7.41-12.93,11.11-18.48,11.11-18.48,0,0,8.35,6.72,19.36,6.72,9.18,0,20.22-4.68,29.8-21.83,.62-1.11,1.23-2.26,1.84-3.48,.05,1.02,.14,2.01,.25,2.97,1.21,10.68,5.84,18.12,11.98,24.04,2.42,2.33,5.06,4.43,7.83,6.4-.69-2.63-.99-5.77-.89-9.18,.14-4.89,1.1-10.34,2.93-15.7-2.41-.92-4.7-2.08-6.87-3.53-.54-.36-1.01-.78-1.48-1.2-2.82-2.58-4.32-6.33-4.38-10.67-.03-2.17,.26-4.46,.98-6.84,.11-.37,.24-.75,.37-1.12,2.62-7.42,8.84-14.55,17.42-14.55h0c3.55,0,7.02,1.28,10.04,3.7,4.49,3.6,10.58,4.79,13.95,5.19,1.75-.89,3.97-1.61,6.56-1.61,1.36,0,3.32,.23,5.43,1.16,67.48-17.18,62.08-129.4,20.26-200.46ZM87.3,164.92s-14.86,22.86-44.16,10.46c20.84-1.86,27.45-5.18,29.31-12.21-20.43,3.52-30.09-13.19-30.09-13.19,14.48,2.64,22.66,.88,30.28-6.18-41.04-1.74-39.18-47.47-39.18-47.47,0,0,14.86,10.55,27.86,5.28-24.14-8.79-27.86-31.66-14.86-63.32,12.53,5.09,22.02,10.27,29.24,15.22-9.17,14.82-10.97,37.63-3.13,60.74,4.76,14.04,12.35,26.03,21.28,34.85l-6.54,15.82Zm382.09-14.95s-9.65,16.71-30.05,13.19c1.85,7.04,8.46,10.36,29.27,12.21-29.27,12.41-44.11-10.46-44.11-10.46l-6.53-15.82c8.92-8.82,16.5-20.81,21.25-34.85,7.83-23.11,6.03-45.92-3.12-60.74,7.21-4.95,16.69-10.13,29.2-15.22,12.98,31.66,9.27,54.52-14.84,63.32,12.98,5.28,27.82-5.28,27.82-5.28,0,0,1.86,45.73-39.14,47.47,7.6,7.05,15.78,8.81,30.24,6.18Z"/><path class="cls-2" d="M477.43,211.41c-.22,0-.37,.07-.37,.07,0,0-6.08,5.06-13.74,6.95-2.46-1.29-5.21-2.08-8.13-2.26-.43-.03-.85-.06-1.28-.06-.82,0-1.62,.06-2.41,.16-.32-.07-.63-.11-.93-.11-1.12,0-2.12,.44-2.85,.89-.05,.03-.09,.06-.13,.09-.7,.23-1.38,.5-2.04,.8-.71-.04-1.77-.12-3.1-.29-2.99-.39-7.25-1.25-11.54-3.14-2.27-1-4.54-2.28-6.62-3.94-1.46-1.17-2.9-1.67-4.26-1.67-5.88,0-10.37,9.3-9.44,14.53l.4,1.32c.29,.65,.7,1.19,1.26,1.56,1.64,1.09,3.46,2.02,5.47,2.74,2.27,.81,4.8,1.37,7.67,1.58,.89,.07,1.81,.11,2.77,.11,1.96,0,4.12-.19,6.38-.5-.08,.24-.14,.48-.21,.72-.5,1.76-.78,3.62-.78,5.54,0,.8,.06,1.58,.15,2.35-1.74,7.01-3.79,17.91-4.29,31.74-.25,6.93-.11,14.59,.65,22.87,.53,5.74,1.35,11.77,2.56,18.06,6.48-.93,12.04-2.78,19.45-6.48,15.06-8.21,15.44-30.09,11.63-50.67,1.5-.83,2.88-1.85,4.12-3.01,1.47-1.37,2.73-2.95,3.74-4.7,1.43-2.47,2.36-5.26,2.64-8.24,.06-.63,.1-1.27,.1-1.91,0-1.02-.1-2.01-.24-2.99-.23-1.57-.63-3.08-1.2-4.5,2.19-.95,4.27-2.39,6.08-4.55,.63-5,.61-8.09,.33-10.01-.39-2.62-1.3-3.03-1.81-3.03Zm-12.41,25.08c0,.75-.08,1.48-.22,2.19-.46,2.29-1.62,4.32-3.25,5.86-1.99,1.89-4.68,3.06-7.64,3.06-6.14,0-11.11-4.98-11.11-11.11s4.98-11.11,11.11-11.11c3.94,0,7.39,2.06,9.37,5.15,.88,1.38,1.47,2.97,1.67,4.68,.05,.42,.08,.85,.08,1.29Z"/><path class="cls-2" d="M79.69,248.13c-5.69-.35-11.14-1.09-16.28-2.23-1.71,1.08-3.73,1.71-5.9,1.71-2.96,0-5.65-1.17-7.64-3.06-1.17-1.11-2.1-2.49-2.7-4.02-1.56-.72-3.08-1.48-4.54-2.3-1.91-1.07-3.71-2.21-5.41-3.41-.05,.55-.09,1.11-.09,1.67,0,.65,.04,1.28,.1,1.91,.28,2.98,1.21,5.77,2.64,8.24,1.01,1.75,2.27,3.33,3.74,4.7,1.24,1.16,2.62,2.19,4.12,3.01-3.81,20.58-3.43,42.45,11.63,50.67,7.41,3.7,12.97,5.56,19.45,6.48,1.21-6.29,2.03-12.32,2.56-18.06,.76-8.27,.9-15.94,.65-22.87-.32-8.74-1.25-16.3-2.33-22.45Z"/></g></g></g></svg>