<?xml version="1.0" encoding="UTF-8"?>
<svg xmlns="http://www.w3.org/2000/svg" version="1.1" viewBox="0 0 512 484.3">
  <defs>
    <style>
      .cls-1 {
        fill: #fff;
      }
    </style>
  </defs>
  <!-- Generator: Adobe Illustrator 28.7.10, SVG Export Plug-In . SVG Version: 1.2.0 Build 236)  -->
  <g>
    <g id="Layer_2">
      <g>
        <path class="cls-1" d="M507.1,99.8c-3.3-8-10.4-14.2-18.9-15.9-3.2-.7-6.2-.7-9.4-.7-12.3,0-24.1,2.3-36.1,4.4-36.7,7-73.1,17.3-106.7,33.9-4.1-3.3-8.7-5.9-13.5-7.9.9-1.5,1.7-3.1,2.3-4.8,3.7-8.7-2.4-18.5-11.6-19.5-2.2-.3-4.3.1-6.3.5-3.9.8-7.9,1.4-11.9,1.7-12,.9-24.3-.9-35.8-4.6-28.7-10.6-60.6-11.3-89.7-2.2-9.7-13.9-20.3-27.3-31.6-39.9-9.9-10.6-19.4-21.8-31.3-30.1-.5-.3-2-1.4-2.5-1.7-.3-.2-.9-.5-1.2-.7-8-4.6-17.9-4.4-25.9.2-1.7,1-3.5,2.3-5,3.6-12.5,11.3-20.3,26.2-27.1,41.3-12.7,28.3-19.3,59.2-19.7,90.2,0,4.9.1,9.9.7,14.9.6,5.6,1.6,11.1,3,16.5-3,3-4.5,7.3-3.5,11.8.5,2.4,1.7,4.3,2.9,6.2.5.8,1.1,1.5,1.6,2.1-1,0-2-.2-3-.5-1.8-.5-2.9-1.4-4.8-2.5-2-1.1-4.5-1.6-6.8-1.4-6.3.4-11.4,5.8-11.7,12,0,4.4,1.7,9.2,3.3,12.8,1,2.4,2.5,5,3.8,7.3,4,6.6,9.8,12.1,16.5,16-9.4,14.3-14.7,31.8-11.1,48.9,1.3,5.3,3.5,12.2,8.4,15.5,3.6,2.4,8,2.5,11.6.9,1.1,6.3,3,12.4,5.9,18.1,3.3,6.4,7.9,12.3,13.4,17.1l.8.7,1.6,1.3c.2.1.3.3.5.4,0,18.5,5,37.2,13.6,53.4,9,17.1,21.4,32,34.8,45.6,6.5,6.7,13.5,13.3,21.2,19.3,6.5,5,13.2,9.7,21.5,11.8,3.8,1,8.1,1.4,12.2.9h.6c0,0,.4-.1.4-.1h.9c0-.1,3.4-.6,3.4-.6,6.9-.9,13.8-2,20.6-3.1,28.1-4.9,56.6-13.1,80.8-28.8,14.7-10.2,27-26.9,31.6-44.4,3.7-1.2,7.3-2.8,10.8-4.7.4,5.8,1.1,11.7,2.1,17.3.4,2.6,1.4,5,3.2,7.1,3.7,4.4,10.4,5.9,15.6,3.5.7-.3,1.9-1,1.8-1,3-1.9,5.7-4.2,8.2-6.8,6,2,12.5,2.5,18.8,1.5,6.6-1.2,12.8-3.9,17.8-8.6,5.5-5.4,5.3-15.1-.5-20.3-.1-.1-.3-.3-.6-.5,11.7-6.2,21.7-15.5,29-26.6,3.9-6,6.8-12.7,8.7-19.8,5.3-.5,10.6-2.3,15.1-5,2.8-1.7,5.4-3.7,7.7-5.9,1.3-1.3,2.6-2.6,3.6-4.2,2.7-4.4,2.9-10.1.3-14.7-1.7-3.2-5.1-5.9-8.8-6.8,0,0-1.3-.3-1.3-.3-2.7-.6-5.1-1.9-6.8-3.9,1.5-1.5,3.1-3,3.1-3,0,0,.6-.6.6-.6,2-2.2,4.6-5,6.7-7.2,21.5-23.7,38.9-51.3,51.6-80.6l2.8-6.5s.7-1.6.7-1.6c.5-1.2,1.4-3.8,1.9-5,1.5-3.8,3.5-9.6,4.7-13.4.6-1.9,1.7-5,2.2-6.8.8-3,2.6-9.1,3.4-12,.8-3.2,2.1-9,2.9-12.1.4-2.4,1.6-8,2-10.5.7-4.2,1.5-9.9,2.1-14.1,1-9,1.1-17.8-2.5-26.6ZM37.5,196.1c-.4,0-1-.1,0,0h0ZM30.9,185.9s0,0,0-.2c0,0,0,.2,0,.2ZM33.2,234.8c.4-.5,0,0,0,0,0,0,0,0,0,0ZM370.1,390.3c-.3.1-.2,0,0,0h0ZM341.5,126.4s-.1-.1-.3-.3c.2.1.3.3.3.3ZM330.3,124.5c-.1,0-.1,0,0,0h0ZM163.3,86.9s-.1,0-.1,0c-.2,0,0,0,.1,0ZM24.7,292.5c0,.1-.2.3,0,0h0ZM61.9,347.9c.2.1.4.2.4.2,0,0-.2,0-.4-.2ZM301.5,393.9s0,0,0,.1c0-.1,0-.3,0-.1ZM334.5,411.5s.2,0,.3.2c-.2-.1-.4-.2-.3-.2ZM346.7,409c0-.1.2-.2,0,0h0ZM363,405.3c.1,0,.3.2.4.3.4.2,0,0-.4-.3ZM405.8,340.3c-.6,0-.1,0,0,0h0ZM416.7,332.2s0,0,0,0c0-.2,0-.6,0,0Z"/>
        <path d="M408.6,297.5c47.1-43.7,78.7-107.7,86.8-172,1.6-12.6.4-28.5-14.3-29.2-7.5-.4-14.7.4-22.2,1.5-25.9,3.8-50.9,9.8-75.5,17.7-17.8,5.7-34.6,12.6-51,21.3-8.2-9.3-19.7-14.4-32.7-14.9,6-6.3,11.6-12.4,14-21.1-21.2,5.7-42.2,4.2-62.3-3-28.3-10.2-59.4-9.6-87.9,1.2-15.6-23.6-33.7-45.6-54.2-65.9-4-3.9-8-7.2-12.7-10.2-6.1-3.8-13.5-2.8-19,2.1-7.5,6.7-13,14.9-17.7,23.8-16.7,31.1-25.2,65.5-25.7,100-.2,13.3,1.8,25.6,6.3,38.1-2.5-.4-4.9-.7-7.4-1.1.5,6.4,7.8,12.5,14.2,15.9-10.7,9.9-23.9,11.8-34.9,1.2-.8,5.9,1.4,11,3.8,15.8,5.2,10.4,14.2,17.6,26,20.2-12.3,13.6-20.7,31.7-17.9,49.8,1,4.7,2.4,9.3,5.9,12.5,3.6-6.9,8.4-12.7,14.8-16.8-4.4,22.8,3,45.3,22.2,56.5-2.1,38.7,18.2,68.8,42.5,94.1,9,9.3,18,17.9,28.3,25.1,6.4,4.5,13.6,7.7,21.3,6.7,34-4.5,68.7-11,99.2-29.7,16.8-10.3,29.1-30.7,30.5-45.9,12-2.7,22.1-8.9,31.3-18.1-.4,15.8.2,26,3,40.9,5.6-2.7,9.9-7.3,13.6-12.9,10.2,6.9,25.1,6.7,34-3.3-6.8-2.4-9.9-9.7-8.2-17.3,13.9-5.1,25.7-15.3,33.7-28.7,3.9-7.3,6.4-14.7,7-23.3,10.9,2.9,21.9-2,28.5-11.7-11.3-.8-20.6-7.6-23.1-19.2ZM56.8,165.3c4.8,1.5,9.3,1.4,13.1-.5-10.3-12.3-14.2-28.6-10.9-44.4,5.1,5.6,10.8,10.3,18.6,11.3-4.3-11.9-4.9-23.8-3.9-36.2,1.2-13.3,4-26.3,10.9-38.3,3.4,13.4,6.8,26.9,10.1,40.3,3.7,12.7,7.7,24.9,13,37.3-18.4,11.4-32.8,27-44,45-4-4-6.6-8.5-7-14.4ZM106.4,384.4c-1.9,2.9-3.9,5.8-5.8,8.7-.9,1.4-2.4,2.2-3.9,2.3-1.1,0-2.2-.3-3.2-1-2.3-1.8-2.8-5.2-1.2-7.7,1.9-2.9,3.8-5.9,5.8-8.8,1.6-2.5,4.8-3,7.1-1.2,2.3,1.8,2.8,5.2,1.2,7.7ZM106.9,355.9c-1.1,1.1-2.4,1.6-3.7,1.7-1.6,0-3.3-.6-4.5-1.9-3.4-3.8-6.9-7.6-10.3-11.4-2.3-2.5-2.2-6.4.1-8.8,2.3-2.4,6.1-2.3,8.3.2,3.5,3.8,6.9,7.6,10.3,11.5,2.2,2.5,2.1,6.4-.2,8.8ZM188.6,385.4c-2.4,6.3-5,12.7-10.3,17-6.6,5.2-14.2,3.4-20-2-2.5-2.2-4.7-4.9-6.7-7.3-2.2-2.6-4.1-5.1-6.5-7.1-.3-.2-.3-.3-.3-.3,0,0-2.2.7-3.2,1.3-5,2.7-9.5,6.9-15.7,7.1-4.1,0-8-2.8-9.8-6.7-2.6-5.8-2.7-12.1-2.8-18.3.3-8.2,11.1-8.4,11.7-.3.1,3.6.4,10.4,1.2,11.5,1.2-.6,2.3-2,3.6-2.8,6.8-5.1,14.3-10.2,22.7-5,4,2.4,7,6,10.1,9.2,2.1,2.1,4,5.1,6.2,6.2.8-1.1,1-2.6,1.5-4,.6-1.4,1.1-3.1,1.6-4.8,1.4-5.1,6.4-7.9,11.1-6.3,4.9,1.6,7.5,7.5,5.6,12.6ZM231.5,416.6c-1.4,2.6-3.9,4-6.4,3.9-1.2,0-2.5-.4-3.7-1.1-6-4-12.1-7.9-18.2-11.9-3.5-2.3-4.7-7.2-2.7-11.1,2.1-3.9,6.6-5.2,10.2-2.9,6.1,3.9,12.3,7.9,18.3,11.9,3.5,2.3,4.6,7.3,2.5,11.1ZM238.3,370.2c-8,2.5-16,5.1-24,7.8-.8.2-1.5.4-2.3.4-3.2,0-6.1-2.3-7.1-5.7-1.2-4.3,1-8.8,5-10.2,8-2.7,16.1-5.3,24.2-7.8,4-1.3,8.2,1.2,9.4,5.5,1.1,4.3-1.2,8.8-5.2,10.1ZM284.2,352c0,0-.1.1-.2.2,0-8.6-4.4-16.3-14.4-21.1-7.5-3.6-15.2-4.3-27.5-3.1-7.5.8-15,1.7-22.5,2.6-35.9,4.4-65.1,6.6-99.8-8.3-9.1-3.9-17.5-8.3-26.2-13.2-3.1-1.7-6-2.5-9.9-2.8,0,0,0,0,0,0,3.4-4.9,8.5-8,14.2-8.9,12.5-2,24.5-6.1,36.1-11.6,9.9-4.6,18.6-10.4,27.1-17.8-6.3,16.9-17.2,30.5-31.3,40.4,22.2,3.6,44.4.1,64.4-10.5,10.5-5.6,19.3-12.9,27.3-22.5-.7,9.4-.2,17.7,2.4,26.1,2,6.3,5.3,12,9.8,16.7,6.5-8.9,12.9-16.8,21.2-24.4,2.2,17.7,11.2,26.7,24.7,33.3,9.2,4.5,11.3,17.2,4.4,25ZM408.6,248.2c-8.8,10.7-22,16.6-35.5,14.5,0-22.5-6.2-44-17.6-63.5,12.7-13.9,26.3-26,41.5-36.9,20.5-14.7,42.7-26.5,66.9-35.7-1.2,6-3.3,10.9-6,16-12,22.3-29,41.9-49.9,56.1,10,3.8,20.1,3.9,30.8,1.7-2.9,7.1-7.7,12.4-13.1,17.7-10.4,9.5-22.7,16-36.4,17.7,4.4,6.9,11.1,10.3,19.4,12.3Z"/>
      </g>
    </g>
  </g>
</svg>