<?xml version="1.0" encoding="UTF-8"?><svg id="Layer_2" xmlns="http://www.w3.org/2000/svg" viewBox="0 0 76.1 76.1"><defs><style>.cls-1{fill:#fff;}.cls-2{fill:gray;}.cls-3{fill:navy;}</style></defs><g id="Layer_1-2"><g><path class="cls-3" d="M67.16,38.06c0-16.06-13.04-29.11-29.11-29.11S8.94,21.99,8.94,38.06s13.04,29.11,29.11,29.11,29.11-13.04,29.11-29.11"/><path class="cls-1" d="M58.63,26c0-4.7-3.82-8.52-8.52-8.52s-8.52,3.82-8.52,8.52,3.82,8.52,8.52,8.52,8.52-3.82,8.52-8.52"/><path class="cls-3" d="M75.68,8.94c0-4.7-3.82-8.52-8.52-8.52s-8.52,3.82-8.52,8.52,3.82,8.52,8.52,8.52,8.52-3.81,8.52-8.52"/><g><path class="cls-1" d="M20.73,50.45h9.43v2.15h-11.87v-19.1h2.44v16.95Z"/><path class="cls-1" d="M41.43,52.6v-1.91c-1.29,1.81-2.56,2.52-4.58,2.52-2.67,0-4.37-1.46-4.37-3.75v-10.58h2.17v9.72c0,1.65,1.1,2.7,2.83,2.7,2.28,0,3.75-1.83,3.75-4.64v-7.78h2.17v13.72h-1.96Z"/><path class="cls-1" d="M59.35,52.97c-.71,.18-1.05,.23-1.5,.23-1.42,0-2.1-.63-2.25-2.02-1.54,1.42-2.93,2.02-4.66,2.02-2.77,0-4.5-1.57-4.5-4.06,0-1.78,.81-3.02,2.41-3.67,.84-.34,1.31-.44,4.4-.84,1.73-.21,2.28-.6,2.28-1.52v-.58c0-1.31-1.1-2.04-3.06-2.04s-3.04,.76-3.22,2.44h-2.2c.06-1.36,.31-2.15,.94-2.85,.92-1.02,2.56-1.6,4.56-1.6,3.38,0,5.16,1.31,5.16,3.75v8.07c0,.68,.42,1.08,1.18,1.08,.13,0,.23,0,.47-.06v1.65h0Zm-3.83-7.16c-.73,.34-1.21,.44-3.51,.76-2.33,.34-3.3,1.08-3.3,2.52s1,2.2,2.7,2.2c1.29,0,2.36-.42,3.25-1.23,.65-.6,.87-1.05,.87-1.78v-2.46Z"/></g><path class="cls-2" d="M39.4,76.1l-.03-.87c1.08-.04,2.17-.12,3.23-.25l.11,.87c-1.09,.13-2.21,.22-3.31,.26Zm-3.32-.03c-1.1-.06-2.22-.16-3.3-.31l.12-.86c1.06,.15,2.15,.25,3.23,.31l-.04,.87Zm9.9-.78l-.18-.85c1.05-.22,2.11-.5,3.14-.81l.26,.83c-1.05,.32-2.14,.6-3.21,.83Zm-16.47-.13c-1.08-.25-2.15-.54-3.2-.88l.27-.83c1.02,.33,2.08,.62,3.13,.86l-.2,.85Zm22.82-1.81l-.33-.81c1-.4,1.99-.86,2.95-1.35l.4,.78c-.98,.5-2,.97-3.02,1.38Zm-29.13-.24c-1.01-.43-2.02-.91-3-1.43l.41-.77c.95,.51,1.94,.98,2.93,1.4l-.34,.8Zm35.04-2.78l-.46-.74c.91-.57,1.81-1.19,2.67-1.84l.53,.7c-.88,.67-1.8,1.3-2.73,1.88Zm-40.9-.34c-.92-.6-1.83-1.25-2.7-1.93l.54-.69c.85,.66,1.74,1.3,2.64,1.89l-.48,.73Zm46.19-3.66l-.58-.65c.8-.72,1.58-1.49,2.31-2.28l.64,.6c-.75,.81-1.55,1.59-2.37,2.33Zm-51.42-.42c-.81-.75-1.59-1.55-2.33-2.37l.65-.59c.72,.8,1.49,1.58,2.28,2.31l-.6,.64Zm55.95-4.43l-.69-.54c.66-.85,1.3-1.74,1.89-2.64l.73,.48c-.6,.92-1.25,1.83-1.93,2.7Zm-60.39-.5c-.67-.88-1.3-1.8-1.89-2.73l.74-.46c.57,.91,1.19,1.81,1.84,2.67l-.7,.53Zm64.01-5.06l-.77-.41c.51-.95,.98-1.94,1.4-2.93l.8,.34c-.43,1.01-.91,2.02-1.43,3Zm-67.54-.55c-.5-.98-.97-2-1.38-3.02l.81-.33c.4,1,.86,1.99,1.35,2.95l-.78,.4Zm70.13-5.55l-.83-.27c.33-1.02,.62-2.08,.87-3.13l.85,.2c-.25,1.07-.55,2.15-.89,3.2ZM1.64,49.22c-.32-1.05-.6-2.14-.83-3.21l.85-.18c.22,1.05,.5,2.11,.81,3.14l-.83,.26Zm74.11-5.87l-.86-.12c.15-1.06,.25-2.15,.31-3.23l.87,.05c-.06,1.1-.16,2.22-.31,3.3ZM.26,42.73c-.13-1.09-.22-2.21-.26-3.31l.87-.03c.04,1.08,.12,2.17,.26,3.23l-.87,.11Zm74.97-5.98c-.04-1.08-.12-2.17-.25-3.24l.87-.11c.13,1.1,.22,2.21,.26,3.31l-.87,.03ZM.9,36.14l-.87-.04c.06-1.1,.16-2.21,.31-3.31l.87,.12c-.15,1.07-.25,2.15-.3,3.23Zm73.54-5.83c-.22-1.05-.5-2.11-.81-3.14l.84-.26c.32,1.05,.6,2.14,.83,3.22l-.85,.18ZM1.79,29.72l-.85-.19c.25-1.07,.54-2.15,.88-3.2l.83,.27c-.33,1.03-.62,2.08-.86,3.13Zm70.76-5.61c-.4-1-.86-1.99-1.34-2.95l.78-.4c.5,.98,.96,2,1.38,3.02l-.81,.33ZM3.78,23.56l-.8-.34c.43-1.02,.91-2.02,1.43-3l.77,.41c-.51,.95-.98,1.94-1.4,2.93Zm3.04-5.73l-.73-.48c.6-.92,1.25-1.83,1.93-2.7l.69,.54c-.66,.85-1.3,1.74-1.88,2.64Zm3.99-5.11l-.64-.59c.75-.81,1.55-1.59,2.37-2.33l.59,.65c-.8,.72-1.58,1.49-2.31,2.28Zm4.81-4.35l-.53-.7c.88-.67,1.8-1.3,2.73-1.89l.46,.74c-.91,.57-1.81,1.19-2.67,1.84Zm39.83-3.2c-.95-.5-1.94-.97-2.93-1.39l.34-.8c1.02,.43,2.03,.91,3,1.42l-.41,.77Zm-34.35-.25l-.4-.78c.98-.5,2-.97,3.02-1.38l.33,.81c-1,.41-1.99,.86-2.95,1.35Zm28.37-2.28c-1.03-.33-2.08-.62-3.13-.86l.19-.85c1.08,.25,2.15,.54,3.2,.88l-.27,.83Zm-22.37-.17l-.26-.83c1.05-.32,2.14-.6,3.21-.84l.18,.85c-1.05,.22-2.11,.5-3.14,.82Zm16.05-1.28c-1.07-.15-2.15-.25-3.23-.31l.04-.87c1.1,.06,2.21,.16,3.31,.31l-.12,.86Zm-9.71-.07l-.11-.87c1.09-.13,2.21-.22,3.31-.26l.03,.87c-1.08,.04-2.17,.13-3.23,.26Z"/></g></g></svg>