<?xml version="1.0" encoding="UTF-8"?><svg id="Layer_2" xmlns="http://www.w3.org/2000/svg" viewBox="0 0 193.87 205.73"><defs><style>.cls-1{fill:#37a5cc;}.cls-2{fill:#fff;}.cls-3{fill:#7dc6dd;}.cls-4{fill:#36697f;}</style></defs><g id="Layer_1-2"><g><g id="b82a632e-4888-4760-a119-707431a1add2"><path id="aafa4d6f-b327-4d41-89f7-193601ba9ff9" class="cls-4" d="M31.34,.03L178,32.14h15.87V205.73H27.52c-5.77,0-10.45-4.68-10.45-10.45h0v-43.74L31.03,.48l.31-.45Z"/><path id="e62b8b6d-a2d5-42f5-95e3-82be612e200d" class="cls-1" d="M31.34,0H169.16c5.77,0,10.45,4.68,10.45,10.45V144.65H31.34V0h0Z"/><polygon id="b696bc37-b8aa-4354-bbfa-d3faf3be85c0" class="cls-3" points="0 163.54 31.34 144.65 31.34 0 0 18.89 0 163.54"/></g><g id="a0880521-7399-45a5-9c9f-e67267c4ec84"><path class="cls-2" d="M85.21,182.64h-9.11l-1.69,6.64h-7.55l8.68-30.38h10.11l9.16,30.38h-7.72l-1.87-6.64Zm-4.64-18.75l-3.08,13.11h6.25l-3.17-13.11Z"/><path class="cls-2" d="M109.16,177.17v12.11h-7.59v-12.06l-9.59-18.31h7.99l5.55,12.8,5.51-12.8h7.68l-9.55,18.27Z"/><path class="cls-2" d="M134.46,182.64h-9.11l-1.69,6.64h-7.55l8.68-30.38h10.11l9.16,30.38h-7.72l-1.87-6.64Zm-4.64-18.75l-3.08,13.11h6.25l-3.17-13.11Z"/></g><g id="e31ea7dd-e699-418c-8488-ea7f2ad8fb14"><path class="cls-2" d="M146.82,32.37V112.53h-19.01V60.77l-13.4,51.65v.11h-18.9l-14.2-53.82v53.82h-17.18V32.37h25.19l16.15,64.36,16.95-64.13-.11-.23h24.51Z"/></g></g></g></svg>