<?xml version="1.0" encoding="UTF-8"?><svg id="Layer_2" xmlns="http://www.w3.org/2000/svg" viewBox="0 0 77.34 77.44"><defs><style>.cls-1{fill:#fafbfd;}</style></defs><g id="Layer_1-2"><g><path class="cls-1" d="M38.64,77.44C17.33,77.44-.07,60.07,0,38.56,.07,17.34,17.37-.17,39.01,0c21.06,.16,38.44,17.38,38.33,38.95-.11,21.19-17.33,38.5-38.69,38.49Zm.02-4.81c18.76-.04,33.49-15.02,33.85-33.11,.39-19.51-15.04-34.31-32.99-34.7C19.98,4.4,5.15,19.94,4.82,38c-.36,19.39,15.19,34.64,33.84,34.63Z"/><path class="cls-1" d="M8.99,41.37c-.55-7.62,1.3-14.45,5.81-20.5,3.94-5.29,9.12-8.87,15.55-10.82-.66,.65-1.26,1.16-1.76,1.76-1.45,1.7-2.28,3.67-2.46,5.92-.13,1.52,.11,2.96,.72,4.34,.87,1.96,2.46,2.89,4.73,2.24,.28-.08,.55-.17,.9-.28,0,.23,0,.42,0,.6-.01,7.67-.02,15.34-.04,23.01,0,1.45,0,2.91-.08,4.36-.07,1.19,.52,1.99,1.35,2.68,1.74,1.45,3.65,1.46,5.55,.45,1.43-.76,2.77-1.7,4.15-2.55,.28-.17,.29-.42,.29-.71,0-7.4,0-14.79,0-22.19,0-1.09,0-2.16-.39-3.2-.56-1.48-1.37-2.77-2.65-3.73-.05-.04-.1-.08-.15-.12-.03-.03-.06-.07-.07-.24,.93,.1,1.88,.12,2.79,.32,.8,.18,1.56,.57,2.34,.85,.13,.04,.34,0,.45-.08,1.25-.98,2.58-1.83,4.01-2.5,1.93-.9,3.95-1.45,6.08-1.65,1.81-.17,3.57,.04,5.33,.42,.1,.02,.19,.08,.39,.18-.37,.09-.63,.15-.89,.21-1.44,.36-2.8,.91-3.82,2.05-.91,1.01-1.48,2.15-1.48,3.57,.02,8.63,0,17.25,0,25.88,0,.95,.54,1.41,1.49,1.27,1.14-.16,2.16-.61,3.12-1.22,3.08-1.95,5.39-4.62,7.24-7.72,.16-.27,.33-.55,.49-.82,.03,0,.07,.01,.1,.02-.08,.51-.14,1.02-.25,1.52-.59,2.79-1.52,5.46-2.87,7.97-2.03,3.77-4.73,6.98-8.12,9.61-1.7,1.32-3.53,2.43-5.46,3.37-.39,.19-.67,.18-1.02-.13-1.77-1.54-3.58-3.05-5.22-4.45-.72,.63-1.45,1.22-2.12,1.88-.81,.81-1.56,1.68-2.34,2.52-.85,.91-1.71,1.81-2.55,2.72-.22,.24-.43,.28-.75,.27-1.83-.07-3.63-.31-5.41-.72-1.85-.43-3.65-1.03-5.39-1.79-1.99-.87-3.84-1.97-5.59-3.25-1.89-1.39-3.59-2.99-5.11-4.78-.05-.06-.07-.14-.14-.28,.55,.07,1.03,.15,1.52,.2,.46,.05,.93,.09,1.4,.09,1.32,0,2.2-.88,2.22-2.22,.01-1.04,0-2.07,0-3.11,0-6.39-.03-12.78,.02-19.18,.01-1.74-1.07-3-3.19-2.65-1.39,.23-2.57,.91-3.67,1.73-1.83,1.36-2.98,3.25-3.83,5.31-.47,1.12-.8,2.3-1.24,3.58Z"/></g></g></svg>