<?xml version="1.0" encoding="UTF-8"?><svg id="Layer_2" xmlns="http://www.w3.org/2000/svg" viewBox="0 0 69 69"><defs><style>.cls-1{fill:#fff;}.cls-2{fill:#0071bc;opacity:0;}</style></defs><g id="Layer_1-2"><g><rect class="cls-2" width="69" height="69"/><path class="cls-1" d="M55.85,4.11c.07,0,.14,0,.22,0,.08,.42,.14,.85,.25,1.27,1.96,7.36,3.93,14.71,5.91,22.06,.2,.76,.51,1.49,.77,2.23v.22c-1.46,2.14-2.71,4.41-3.97,6.68,.23,.43,.4,.79,.6,1.12,.82,1.4,1.6,2.83,2.49,4.19,.6,.92,.7,1.81,.41,2.87-2.09,7.66-4.14,15.34-6.2,23.01-.09,.34-.24,.66-.42,1.13-8.61-2.3-17.14-4.59-25.62-6.85-1.1-1.93-2.18-3.72-3.14-5.58-.49-.95-1.13-1.29-2.15-1.23-1.76,.1-3.53,.11-5.3,.19-.7,.03-1.23-.2-1.73-.7-5.76-5.78-11.54-11.54-17.31-17.32-.24-.24-.43-.54-.66-.83,.29-.33,.49-.58,.72-.81,5.74-5.75,11.5-11.48,17.23-17.24,.53-.53,1.1-.74,1.83-.73,1.81,.03,3.61,.02,5.42,.01,.42,0,.85-.07,1.31-.1,.28-.47,.56-.89,.8-1.32,.81-1.41,1.64-2.81,2.4-4.24,.39-.73,.93-1.1,1.73-1.31,7.23-1.91,14.44-3.84,21.66-5.79,.93-.25,1.84-.6,2.76-.91ZM12.75,33.34c1.26,.33,21.76,.3,22.69,.04,1.01-1.24,10.96-18.68,11.14-19.6-.46,.1-.87,.17-1.28,.27-5.77,1.48-11.53,2.96-17.3,4.42-.69,.18-1.25,.49-1.74,1-2.33,2.42-4.66,4.82-7.01,7.21-1.87,1.91-3.76,3.79-5.64,5.68-.27,.27-.5,.57-.85,.97Zm22.76,6.37c-.66-.03-1.16-.07-1.66-.07-4.11,0-8.22,0-12.34,0-2.42,0-4.83,0-7.25,0-.39,0-.79,.11-1.41,.2,.61,.71,1.03,1.25,1.5,1.73,1.59,1.62,3.21,3.22,4.8,4.84,2.14,2.19,4.29,4.38,6.4,6.6,.84,.89,1.77,1.52,2.98,1.82,5.63,1.41,11.25,2.87,16.88,4.31,.36,.09,.74,.12,1.23,.19-.08-.34-.08-.53-.16-.67-3.64-6.3-7.29-12.6-10.97-18.96Zm16.92-22.41c-.12-.02-.23-.04-.35-.05-3.76,6.43-7.5,12.87-11.19,19.35,1.3,2.25,2.55,4.4,3.79,6.56,1.24,2.16,2.45,4.34,3.73,6.47,1.26,2.11,2.37,4.31,3.9,6.5,.19-.48,.31-.73,.38-1,.41-1.42,.81-2.85,1.21-4.27,1.22-4.34,2.44-8.69,3.66-13.03,.22-.78,.28-1.53,.05-2.34-1.63-5.73-3.22-11.47-4.83-17.2-.09-.33-.24-.65-.36-.98Z"/></g></g></svg>