<?xml version="1.0" encoding="UTF-8"?><svg id="Layer_2" xmlns="http://www.w3.org/2000/svg" viewBox="0 0 66.11 74.3"><defs><style>.cls-1{fill:#fff;}.cls-2{fill:#6a1b74;}.cls-3{fill:#813381;}.cls-4{fill:#9b4b90;}</style></defs><g id="Layer_1-2"><g><path class="cls-4" d="M66.11,21.84c0-1.25-.27-2.35-.81-3.3-.53-.93-1.33-1.71-2.39-2.33C54.11,11.14,45.3,6.08,36.5,1c-2.37-1.37-4.67-1.32-7.03,.07C25.97,3.14,8.43,13.18,3.2,16.21,1.05,17.46,0,19.36,0,21.84c0,10.21,0,20.41,0,30.62,0,1.22,.26,2.3,.77,3.24,.53,.96,1.34,1.76,2.43,2.39,5.23,3.03,22.77,13.07,26.27,15.14,2.36,1.39,4.66,1.44,7.03,.07,8.8-5.08,17.61-10.14,26.41-15.21,1.09-.63,1.9-1.43,2.43-2.39,.52-.93,.77-2.02,.77-3.24,0,0,0-20.41,0-30.61"/><path class="cls-2" d="M33.16,37.05L.77,55.7c.53,.96,1.34,1.76,2.43,2.39,5.23,3.03,22.77,13.07,26.27,15.14,2.36,1.39,4.66,1.44,7.03,.07,8.8-5.08,17.61-10.14,26.41-15.21,1.09-.63,1.9-1.43,2.43-2.39l-32.18-18.64Z"/><path class="cls-3" d="M66.11,21.84c0-1.25-.27-2.35-.81-3.3l-32.14,18.51,32.18,18.64c.52-.93,.77-2.02,.77-3.24,0,0,0-20.41,0-30.61"/><g><path class="cls-1" d="M52.22,30.08v3.49h3.49v-3.49h1.74v3.49h3.49v1.74h-3.49v3.48h3.49v1.74h-3.49v3.49h-1.74v-3.49h-3.49v3.49h-1.74v-3.49h-3.48v-1.74h3.48v-3.48h-3.48v-1.74h3.48v-3.49h1.74Zm3.49,5.23h-3.49v3.49h3.49v-3.49Z"/><path class="cls-1" d="M33.23,12.58c9.09,0,17.03,4.94,21.28,12.28l-.04-.07-10.7,6.16c-2.11-3.57-5.97-5.98-10.4-6.03h-.14c-6.76,0-12.24,5.48-12.24,12.24,0,2.13,.55,4.22,1.61,6.07,2.11,3.68,6.07,6.17,10.62,6.17s8.56-2.51,10.66-6.24l-.05,.09,10.68,6.19c-4.2,7.28-12.03,12.2-21.02,12.3h-.27c-9.12,0-17.08-4.97-21.32-12.34-2.07-3.6-3.25-7.78-3.25-12.23,0-13.57,11-24.57,24.57-24.57h0Z"/></g></g></g></svg>