<?xml version="1.0" encoding="UTF-8"?><svg id="Layer_2" xmlns="http://www.w3.org/2000/svg" viewBox="0 0 100 100"><defs><style>.cls-1{fill:#fff;}.cls-2{fill:#fdfefe;}.cls-3{fill:#ee652a;}.cls-4{fill:#30a8db;}.cls-5{fill:#111;}.cls-6{fill:#0d73b8;}.cls-7{fill:#e4a229;}.cls-8{fill:#e24f27;}.cls-9{fill:#f0be26;}</style></defs><g id="Layer_1-2"><g><polygon class="cls-5" points="96 0 62.19 0 51.12 0 4 0 0 0 .34 4.01 4.22 50.03 4.44 52.61 6.93 53.29 24.98 58.2 27.78 91.43 28 94.01 30.48 94.69 49.04 99.74 50 100 50.96 99.74 69.52 94.69 72 94.01 72.22 91.43 75.02 58.2 93.08 53.29 95.56 52.61 95.78 50.03 99.66 4.01 100 0 96 0"/><polygon class="cls-9" points="68.9 47.17 50.57 47.17 48.68 47.17 48.68 49.05 48.68 92.46 48.68 94.92 51.06 94.27 66.08 90.18 67.35 89.84 67.46 88.53 70.78 49.2 70.95 47.17 68.9 47.17"/><path class="cls-7" d="M27.56,45.1l3.88,46.02,18.55,5.05,18.55-5.05,3.88-46.02H27.56Zm37.46,43.08l-15.02,4.09V48.86h18.34l-3.32,39.32Z"/><polygon class="cls-1" points="43.2 65.8 43.69 60.14 56.47 60.05 57.3 62.98 62.91 62.98 60.92 54.48 38.64 54.48 37.38 71.43 56.69 71.43 55.99 78.65 49.78 80.38 43.42 78.71 42.98 74.2 37.53 74.2 38.2 83.22 49.78 86.37 61.37 83.22 63 65.8 43.2 65.8"/><polygon class="cls-5" points="26.25 18.21 26.25 58.54 48.37 52.41 50 32.8 51.62 52.41 73.25 58.4 73.25 18.21 26.25 18.21"/><g><polygon class="cls-4" points="92.46 5.77 74.12 5.77 72.24 5.77 72.24 7.65 72.24 51.06 72.24 53.52 74.62 52.87 89.64 48.79 90.91 48.44 91.02 47.13 94.34 7.81 94.51 5.77 92.46 5.77"/><path class="cls-6" d="M51.12,3.7l3.88,46.02,18.55,5.05,18.55-5.05,3.88-46.02H51.12Zm37.46,43.08l-15.02,4.09V7.46h18.34l-3.32,39.32Z"/><polygon class="cls-1" points="59.55 13.1 60.03 18.76 81.57 18.76 81.03 24.39 60.5 24.39 60.99 30.22 80.47 30.22 79.78 37.45 73.58 39.07 61.47 35.87 61.97 41.84 73.56 44.99 85.14 41.84 87.57 13.1 59.55 13.1"/></g><g><polygon class="cls-3" points="45.34 5.77 27.01 5.77 25.12 5.77 25.12 7.65 25.12 51.06 25.12 53.52 27.5 52.87 42.52 48.79 43.79 48.44 43.9 47.13 47.22 7.81 47.39 5.77 45.34 5.77"/><path class="cls-8" d="M4,3.7l3.88,46.02,18.55,5.05,18.55-5.05L48.88,3.7H4ZM41.46,46.78l-15.02,4.09V7.46h18.34l-3.32,39.32Z"/><polygon class="cls-2" points="18.96 24.59 18.46 18.67 39.95 18.67 40.42 13.1 12.4 13.1 13.85 30.24 33.34 30.24 32.64 37.46 26.43 39.19 20.07 37.52 19.63 33.02 14.08 33.02 14.83 41.84 26.41 44.99 38 41.84 39.45 24.59 18.96 24.59"/></g></g></g></svg>