<?xml version="1.0" encoding="UTF-8"?><svg id="Layer_2" xmlns="http://www.w3.org/2000/svg" viewBox="0 0 74.56 74.56"><defs><style>.cls-1{fill:#fff;fill-rule:evenodd;}.cls-2{fill:#e2241a;}</style></defs><g id="Layer_1-2"><g><rect class="cls-2" x="6.84" y="6.84" width="60.87" height="60.87" transform="translate(-8.38 63.64) rotate(-75)"/><path class="cls-1" d="M39.12,56.18l-1.59,5.93c.83,.75,1.87,1.43,3.12,2.03,1.25,.6,2.61,1.1,4.07,1.49s2.81,.61,4.16,.68c1.35,.07,2.59-.08,3.73-.44,1.13-.37,2.11-.98,2.95-1.83,.83-.86,1.45-2.03,1.84-3.51,.29-1.07,.38-2.06,.27-2.96-.1-.9-.38-1.74-.81-2.53-.44-.79-1.01-1.55-1.73-2.28-.71-.73-1.54-1.46-2.49-2.19-.69-.53-1.31-1.03-1.85-1.5-.54-.47-.98-.92-1.33-1.35-.35-.43-.59-.85-.73-1.27-.14-.42-.15-.85-.03-1.29,.11-.41,.31-.75,.61-1.02,.3-.27,.67-.47,1.12-.6,.45-.13,.96-.19,1.56-.17s1.23,.12,1.91,.3c.49,.13,1.01,.31,1.54,.53,.53,.22,1.05,.48,1.57,.79,.52,.3,1,.64,1.47,1.02,.46,.38,.88,.78,1.24,1.21l1.48-5.54c-.81-.59-1.73-1.11-2.75-1.56-1.03-.45-2.23-.87-3.62-1.24s-2.79-.58-4.13-.62c-1.34-.04-2.58,.14-3.71,.53-1.13,.39-2.11,1-2.93,1.85-.82,.85-1.42,1.96-1.79,3.34-.47,1.77-.37,3.41,.32,4.93,.69,1.52,1.95,2.99,3.8,4.41,.73,.55,1.4,1.08,2.02,1.59,.62,.51,1.14,1.01,1.56,1.49,.42,.48,.72,.97,.91,1.46,.19,.49,.21,.99,.07,1.51-.1,.38-.29,.71-.56,.99s-.63,.49-1.07,.63c-.44,.14-.96,.2-1.56,.19-.6-.01-1.28-.12-2.03-.33-1.29-.34-2.5-.91-3.64-1.7-1.14-.79-2.13-1.78-2.96-2.97Zm-5.93-17.41l7.63,2.04,1.31-4.88-21.26-5.7-1.31,4.88,7.59,2.03-5.83,21.74,6.04,1.62,5.83-21.74Z"/></g></g></svg>