<?xml version="1.0" encoding="UTF-8"?><svg id="Layer_2" xmlns="http://www.w3.org/2000/svg" viewBox="0 0 160.98 112.66"><defs><style>.cls-1{fill:#fff;}.cls-2{fill:#242424;}</style></defs><g id="Layer_1-2"><rect class="cls-1" x="35.99" y="16.83" width="89" height="79"/><path class="cls-2" d="M80.44,0S30.13,0,17.5,3.28c-6.76,1.89-12.33,7.46-14.22,14.32C0,30.23,0,56.38,0,56.38c0,0,0,26.25,3.28,38.68,1.89,6.86,7.36,12.33,14.22,14.22,12.73,3.38,62.94,3.38,62.94,3.38,0,0,50.41,0,63.04-3.28,6.86-1.89,12.33-7.26,14.12-14.22,3.38-12.53,3.38-38.68,3.38-38.68,0,0,.1-26.25-3.38-38.88-1.79-6.86-7.26-12.33-14.12-14.12C130.85,0,80.44,0,80.44,0Zm-16.01,32.22l41.86,24.16-41.86,24.06V32.22h0Z"/></g></svg>